<?xml version="1.0" encoding="UTF-8"?><svg id="Layer_1" xmlns="http://www.w3.org/2000/svg" viewBox="0 0 2000 289.18"><defs><style>.cls-1{fill:#fff;}</style></defs><path class="cls-1" d="m551.16,138.98c-1.87-1.52-3.85-2.91-5.92-4.19.46-.36.92-.7,1.37-1.07,4.74-3.88,8.58-8.77,11.52-14.65,2.94-5.88,4.41-13.09,4.41-21.62s-1.42-15.6-4.27-22.33c-2.84-6.73-6.88-12.52-12.09-17.35-5.22-4.84-11.43-8.53-18.63-11.09-7.21-2.56-15.27-3.84-24.18-3.84h-19.06c-8.73,0-15.7,1.28-20.91,3.84-5.22,2.56-9.01,6.59-11.38,12.09-2.37,5.5-3.56,12.52-3.56,21.05v143.66c0,4.74,1.28,8.35,3.84,10.81,2.56,2.46,5.55,3.7,8.96,3.7s6.4-1.24,8.96-3.7c2.56-2.46,3.84-6.07,3.84-10.81V79.81c0-3.6.09-6.16.28-7.68.19-1.52,1-2.51,2.42-2.99,1.42-.47,3.93-.71,7.54-.71h19.06c6.83,0,12.75,1.09,17.78,3.27,5.02,2.18,8.91,5.45,11.66,9.81,2.75,4.37,4.13,9.67,4.13,15.93,0,7.02-1.38,12.33-4.13,15.93-2.75,3.6-6.4,6.36-10.95,8.25-1.71.76-4.08,1.33-7.11,1.71-3.04.38-6.4.67-10.1.85-3.7.19-7.73.28-12.09.28-.53,0-1.04.02-1.54.05-.24.02-.47.04-.7.06-.23.02-.46.05-.68.08-.32.04-.64.09-.95.15-.07.01-.14.03-.21.04-2.78.55-5.04,1.69-6.73,3.45-.06.06-.11.13-.17.2-1.42,1.42-2.4,3.05-2.96,4.92-.02.05-.02.1-.04.15-.02.06-.03.13-.05.19-.07.26-.13.51-.19.77-.04.19-.07.38-.11.58-.03.19-.06.37-.08.56-.02.16-.04.32-.05.49-.06.74-.06,1.47,0,2.21.01.17.04.33.05.49.02.18.05.37.08.55.03.19.07.39.11.58.05.25.12.51.19.76.02.07.03.14.05.2.01.05.02.1.04.15.55,1.87,1.54,3.51,2.96,4.93.06.06.11.13.17.19,1.7,1.76,3.95,2.91,6.73,3.45.07.01.14.03.22.04.31.06.62.11.94.15.22.03.46.05.69.08.23.02.46.05.69.06.5.03,1.01.05,1.54.05,5.5,0,10.19.05,14.08.14,3.89.1,7.21.33,9.96.71,2.75.38,5.17.85,7.25,1.42,4.36,1.33,8.11,3.27,11.24,5.83,3.13,2.56,5.55,5.65,7.25,9.25,1.71,3.6,2.56,7.78,2.56,12.52,0,3.98-.62,7.68-1.85,11.09-1.24,3.41-3.04,6.4-5.41,8.96-2.37,2.56-5.17,4.69-8.39,6.4-5.5,2.66-11.09,4.03-16.78,4.12-5.69.1-12.33.14-19.91.14-4.74,0-8.35,1.28-10.81,3.84-2.47,2.56-3.7,5.55-3.7,8.96s1.23,6.4,3.7,8.96c2.46,2.56,6.07,3.84,10.81,3.84,7.21,0,13.46-.04,18.78-.14,5.31-.09,10.24-.61,14.79-1.56,4.55-.95,9.39-2.75,14.51-5.4,6.07-3.03,11.33-7.01,15.79-11.95,4.45-4.93,7.92-10.53,10.38-16.78,2.46-6.26,3.7-13.09,3.7-20.48,0-8.34-1.71-16.02-5.12-23.04-3.41-7.01-8.16-12.99-14.22-17.92Z"/><path class="cls-1" d="m612.04,91.75c-3.41,0-6.4,1.19-8.96,3.56-2.56,2.37-3.84,5.93-3.84,10.67v118.91c0,4.93,1.28,8.58,3.84,10.95,2.56,2.37,5.55,3.56,8.96,3.56s6.4-1.24,8.96-3.7c2.56-2.46,3.84-6.07,3.84-10.81v-118.91c0-4.74-1.28-8.29-3.84-10.67-2.56-2.37-5.55-3.56-8.96-3.56Z"/><path class="cls-1" d="m621,31.59c-2.56-2.18-5.55-3.27-8.96-3.27s-6.4,1.09-8.96,3.27c-2.56,2.18-3.84,5.45-3.84,9.81v13.94c0,4.36,1.28,7.64,3.84,9.81,2.56,2.18,5.55,3.27,8.96,3.27s6.4-1.09,8.96-3.27c2.56-2.18,3.84-5.45,3.84-9.81v-13.94c0-4.36-1.28-7.63-3.84-9.81Z"/><path class="cls-1" d="m774.19,107.54c-5.12-5.21-11.14-9.15-18.06-11.81-6.93-2.65-14.46-3.98-22.62-3.98-9.86,0-19.06,1.99-27.59,5.97-6.08,2.84-11.57,6.44-16.5,10.77v-2.52c0-4.74-1.28-8.34-3.84-10.81-2.56-2.46-5.55-3.7-8.96-3.7s-6.4,1.24-8.96,3.7c-2.56,2.47-3.84,6.07-3.84,10.81v118.91c0,3.8.85,6.88,2.56,9.25,1.71,2.37,3.84,3.93,6.4,4.69,2.56.76,5.12.76,7.68,0,2.56-.76,4.69-2.32,6.4-4.69,1.71-2.37,2.56-5.45,2.56-9.25v-62.02c0-7.4,1.04-13.94,3.13-19.63,2.08-5.69,4.98-10.43,8.68-14.22,3.7-3.79,8.11-6.69,13.23-8.68,5.12-1.99,10.81-2.99,17.07-2.99,7.21,0,13.27,1.33,18.21,3.98,4.93,2.66,8.68,6.59,11.24,11.81,2.56,5.22,3.84,11.81,3.84,19.77v71.97c0,4.74,1.28,8.35,3.84,10.81,2.56,2.46,5.55,3.7,8.96,3.7s6.4-1.24,8.96-3.7c2.56-2.46,3.84-6.07,3.84-10.81v-71.97c0-9.86-1.42-18.58-4.27-26.17-2.84-7.58-6.83-13.98-11.95-19.2Z"/><path class="cls-1" d="m941.46,93.18c-3.41,0-6.4,1.24-8.96,3.7-2.37,2.28-3.63,5.56-3.81,9.79-4.76-3.96-10.03-7.19-15.82-9.65-8.25-3.51-17.21-5.26-26.88-5.26-12.9,0-24.51,3.13-34.85,9.39-10.34,6.26-18.49,14.93-24.47,26.03-5.97,11.09-8.96,23.85-8.96,38.26,0,10.81,1.71,20.72,5.12,29.73,3.41,9.01,8.25,16.83,14.51,23.47,6.26,6.64,13.56,11.76,21.91,15.36,8.34,3.6,17.35,5.4,27.03,5.4s18.63-1.52,26.88-4.55c5.66-2.08,10.82-4.83,15.5-8.21v1.38c0,4.74,1.28,8.34,3.84,10.81,2.56,2.46,5.55,3.7,8.96,3.7s6.4-1.24,8.96-3.7c2.56-2.47,3.84-6.07,3.84-10.81v-120.33c0-4.74-1.28-8.34-3.84-10.81-2.56-2.46-5.55-3.7-8.96-3.7Zm-12.8,78.52c0,7.02-1,13.18-2.99,18.49-1.99,5.31-4.88,9.72-8.68,13.23-3.8,3.51-8.3,6.12-13.51,7.82-5.22,1.71-10.95,2.56-17.21,2.56s-12.05-1.18-17.35-3.56c-5.31-2.37-9.86-5.73-13.66-10.1-3.8-4.36-6.73-9.48-8.82-15.36-2.09-5.88-3.13-12.33-3.13-19.35s1.04-13.46,3.13-19.34c2.08-5.88,4.98-10.95,8.68-15.22,3.7-4.27,8.2-7.58,13.51-9.96,5.31-2.37,11.09-3.56,17.35-3.56,8.34,0,15.74,1.99,22.19,5.97,6.45,3.98,11.47,9.58,15.08,16.78,3.6,7.21,5.4,15.46,5.4,24.75v6.83Z"/><path class="cls-1" d="m1068.06,93.75c-10.43-1.32-19.77-.95-28.02,1.14-8.25,2.09-15.41,5.5-21.48,10.24-.49.39-.97.79-1.45,1.19-.14-4.34-1.4-7.68-3.81-10.01-2.56-2.46-5.55-3.7-8.96-3.7s-6.4,1.19-8.96,3.56c-2.56,2.37-3.84,6.02-3.84,10.95v117.77c0,3.8.85,6.88,2.56,9.25,1.71,2.37,3.84,3.93,6.4,4.69,2.56.76,5.12.71,7.68-.14,2.56-.85,4.69-2.42,6.4-4.69,1.71-2.28,2.56-5.31,2.56-9.1v-62.87c0-6.64.85-12.8,2.56-18.49,1.71-5.69,4.41-10.57,8.11-14.65,3.7-4.08,8.58-7.01,14.65-8.82,6.07-1.8,13.46-2.04,22.19-.71,4.74.57,8.49-.24,11.24-2.42,2.75-2.18,4.36-4.98,4.84-8.39.47-3.41-.33-6.54-2.42-9.39-2.09-2.85-5.5-4.65-10.24-5.41Z"/><path class="cls-1" d="m1214.42,92.89c-3.13-1.32-6.36-1.42-9.67-.28-3.32,1.14-5.93,3.89-7.82,8.25-1.9,4.36-3.98,9.06-6.26,14.08-2.28,5.03-4.41,9.81-6.4,14.37s-3.75,8.44-5.26,11.66c-3.04,7.02-6.36,14.51-9.96,22.47-3.6,7.97-7.16,15.84-10.67,23.61-.04.09-.08.17-.12.26-2.44-5.06-5.29-10.92-8.56-17.61-1.9-3.98-4.12-8.72-6.68-14.22-2.56-5.5-5.31-11.38-8.25-17.64-2.94-6.26-5.88-12.56-8.82-18.92-2.94-6.35-5.74-12.47-8.39-18.35-2.09-4.36-4.79-7.06-8.11-8.11-3.32-1.04-6.5-.85-9.53.57-3.04,1.42-5.22,3.75-6.54,6.97-1.33,3.23-1.04,7.02.85,11.38,2.65,5.69,5.5,11.76,8.53,18.21,3.03,6.45,6.02,12.85,8.96,19.2,2.94,6.36,5.73,12.33,8.39,17.92,2.65,5.6,4.93,10.38,6.83,14.37,2.46,5.12,4.84,9.77,7.11,13.94,2.28,4.17,4.17,7.97,5.69,11.38,1.52,3.41,2.46,6.59,2.84,9.53.38,2.94-.1,5.83-1.42,8.68-.57,1.52-1.24,3.08-1.99,4.69-.76,1.61-1.52,3.27-2.28,4.98-.76,1.71-1.52,3.51-2.28,5.41-.95,2.28-1.95,4.5-2.99,6.69-1.05,2.18-2.09,4.41-3.13,6.69-1.04,2.28-2.09,4.55-3.13,6.83-1.04,2.28-2.04,4.45-2.99,6.54-1.52,3.41-1.99,6.54-1.42,9.39.57,2.85,1.85,5.17,3.84,6.97,1.99,1.8,4.27,2.89,6.83,3.27,2.56.38,5.12-.14,7.68-1.56,2.56-1.42,4.69-3.84,6.4-7.25.95-2.09,1.94-4.22,2.99-6.4,1.04-2.18,2.04-4.36,2.99-6.54.95-2.18,1.89-4.36,2.84-6.54.95-2.18,1.89-4.41,2.84-6.69.76-1.9,1.57-3.7,2.42-5.41.85-1.71,1.66-3.46,2.42-5.26.76-1.8,1.52-3.56,2.28-5.26,2.84-6.26,6.44-14.22,10.81-23.9,4.36-9.67,8.96-19.82,13.8-30.44,4.84-10.62,9.25-20.48,13.23-29.59,1.14-2.46,2.42-5.31,3.84-8.53,1.42-3.22,2.94-6.64,4.55-10.24,1.61-3.6,3.22-7.21,4.84-10.81,1.61-3.6,3.17-7.11,4.69-10.53,2.08-4.36,2.42-8.15,1-11.38-1.42-3.22-3.7-5.5-6.83-6.83Z"/><path class="cls-1" d="m1437.16,203.27c-2.94-4.74-5.83-9.43-8.68-14.08-2.84-4.65-5.74-9.2-8.68-13.66-2.94-4.45-5.93-8.86-8.96-13.23-2.84-3.98-5.93-7.73-9.25-11.24-.27-.28-.56-.55-.84-.83,8.58-4.84,15.51-11.28,20.75-19.37,5.59-8.63,8.39-18.63,8.39-30.01,0-8.34-1.47-16.02-4.41-23.04-2.94-7.01-7.16-13.13-12.66-18.35-5.5-5.21-12.09-9.29-19.77-12.23-7.68-2.94-16.26-4.41-25.75-4.41h-26.46c-6.45,0-11.66.95-15.65,2.84-3.98,1.9-7.07,4.74-9.25,8.53-2.18,3.8-3.65,8.68-4.41,14.65-.76,5.97-1.14,12.94-1.14,20.91v135.13c0,4.74,1.28,8.35,3.84,10.81,2.56,2.46,5.55,3.7,8.96,3.7s6.4-1.24,8.96-3.7c2.56-2.46,3.84-6.07,3.84-10.81V89.76c0-3.41-.05-6.45-.14-9.1-.1-2.65,0-4.88.28-6.69.28-1.8,1-3.17,2.13-4.12,1.14-.95,2.94-1.42,5.41-1.42h23.61c7.58,0,14.13,1.33,19.63,3.98,5.5,2.66,9.77,6.4,12.8,11.24,3.03,4.84,4.55,10.57,4.55,17.21s-1.42,12.38-4.27,17.21c-2.84,4.84-6.78,8.53-11.81,11.09-5.03,2.56-10.86,3.84-17.5,3.84h-17.64c-3.8,0-6.88.85-9.25,2.56-2.37,1.71-3.94,3.84-4.69,6.4-.76,2.56-.76,5.12,0,7.68.76,2.56,2.32,4.69,4.69,6.4,2.37,1.71,5.45,2.56,9.25,2.56,7.58,0,13.37.57,17.35,1.71,3.98,1.14,7.35,3.04,10.1,5.69,2.75,2.66,5.83,6.36,9.25,11.09,3.03,3.98,5.93,8.16,8.68,12.52,2.75,4.36,5.55,8.82,8.39,13.37,2.84,4.55,5.73,9.25,8.68,14.08,2.94,4.84,6.02,9.72,9.25,14.65,2.65,4.17,5.73,6.54,9.25,7.11,3.51.57,6.64-.05,9.39-1.85,2.75-1.8,4.6-4.41,5.55-7.82.95-3.41.09-7.11-2.56-11.09-3.23-5.12-6.31-10.05-9.25-14.79Z"/><path class="cls-1" d="m1571.15,101.29c-10.72-6.35-22.9-9.53-36.56-9.53s-25.56,3.18-36.27,9.53c-10.72,6.36-19.16,15.08-25.32,26.17-6.17,11.1-9.25,23.75-9.25,37.98,0,8.53,1.14,16.5,3.41,23.9,2.28,7.4,5.41,14.04,9.39,19.91,4.55,6.83,9.81,12.38,15.79,16.64,5.97,4.27,12.94,7.82,20.91,10.67,4.55,1.52,8.39,1.42,11.52-.28,3.13-1.71,5.26-4.17,6.4-7.4,1.14-3.22.95-6.4-.57-9.53-1.52-3.13-4.55-5.55-9.1-7.25-3.41-1.14-6.54-2.46-9.39-3.98-2.84-1.52-5.45-3.32-7.82-5.4-2.37-2.09-4.6-4.65-6.69-7.68-2.66-3.98-4.69-8.49-6.12-13.51-1.42-5.02-2.13-10.38-2.13-16.07,0-9.29,1.89-17.59,5.69-24.89,3.79-7.3,9.1-12.99,15.93-17.07,6.83-4.08,14.7-6.12,23.61-6.12s16.78,2.04,23.61,6.12c6.83,4.08,12.18,9.77,16.07,17.07,3.88,7.3,5.83,15.6,5.83,24.89,0,5.69-.71,11-2.13,15.93-1.42,4.93-3.46,9.39-6.12,13.37-3.23,4.55-6.64,8.11-10.24,10.67-3.61,2.56-8.25,4.79-13.94,6.69-4.55,1.71-7.59,4.12-9.1,7.25-1.52,3.13-1.71,6.31-.57,9.53,1.14,3.23,3.27,5.69,6.4,7.4,3.13,1.71,6.87,1.8,11.24.28,8.53-3.03,15.74-6.64,21.62-10.81,5.88-4.17,11.1-9.77,15.65-16.78,4.17-6.07,7.35-12.75,9.53-20.06,2.18-7.3,3.27-15.12,3.27-23.47,0-14.22-3.08-26.88-9.25-37.98-6.16-11.09-14.61-19.82-25.32-26.17Z"/><path class="cls-1" d="m1735.29,101.29c-10.72-6.35-22.9-9.53-36.56-9.53s-25.56,3.18-36.27,9.53c-10.72,6.36-19.16,15.08-25.32,26.17-6.17,11.1-9.25,23.75-9.25,37.98,0,8.53,1.14,16.5,3.41,23.9,2.28,7.4,5.41,14.04,9.39,19.91,4.55,6.83,9.81,12.38,15.79,16.64,5.97,4.27,12.94,7.82,20.91,10.67,4.55,1.52,8.39,1.42,11.52-.28,3.13-1.71,5.26-4.17,6.4-7.4,1.14-3.22.95-6.4-.57-9.53-1.52-3.13-4.55-5.55-9.1-7.25-3.41-1.14-6.54-2.46-9.39-3.98-2.85-1.52-5.45-3.32-7.82-5.4-2.37-2.09-4.6-4.65-6.69-7.68-2.66-3.98-4.69-8.49-6.12-13.51-1.42-5.02-2.13-10.38-2.13-16.07,0-9.29,1.89-17.59,5.69-24.89,3.79-7.3,9.1-12.99,15.93-17.07,6.83-4.08,14.7-6.12,23.61-6.12s16.78,2.04,23.61,6.12c6.83,4.08,12.18,9.77,16.07,17.07,3.88,7.3,5.83,15.6,5.83,24.89,0,5.69-.71,11-2.13,15.93-1.42,4.93-3.46,9.39-6.12,13.37-3.23,4.55-6.64,8.11-10.24,10.67-3.6,2.56-8.25,4.79-13.94,6.69-4.55,1.71-7.59,4.12-9.1,7.25-1.52,3.13-1.71,6.31-.57,9.53,1.14,3.23,3.27,5.69,6.4,7.4,3.13,1.71,6.87,1.8,11.24.28,8.53-3.03,15.74-6.64,21.62-10.81,5.88-4.17,11.09-9.77,15.65-16.78,4.17-6.07,7.35-12.75,9.53-20.06,2.18-7.3,3.27-15.12,3.27-23.47,0-14.22-3.08-26.88-9.25-37.98-6.17-11.09-14.61-19.82-25.32-26.17Z"/><path class="cls-1" d="m1996.02,124.04c-2.66-7.3-6.36-13.37-11.1-18.21-4.74-4.84-10.15-8.39-16.22-10.67-6.07-2.28-12.52-3.41-19.34-3.41-8.73,0-16.88,1.76-24.46,5.26-7.59,3.51-14.22,8.44-19.91,14.79-.49.54-.95,1.11-1.42,1.67-1.77-2.81-3.75-5.37-5.98-7.64-4.74-4.84-10.15-8.39-16.21-10.67-6.07-2.28-12.52-3.41-19.35-3.41-8.73,0-16.88,1.76-24.46,5.26-4.42,2.04-8.51,4.59-12.28,7.59-.23-4.06-1.49-7.16-3.79-9.3-2.56-2.37-5.55-3.56-8.96-3.56s-6.4,1.19-8.96,3.56c-2.56,2.37-3.84,5.93-3.84,10.67v118.91c0,3.8.85,6.88,2.56,9.25,1.71,2.37,3.84,3.93,6.4,4.69,2.56.76,5.12.76,7.68,0,2.56-.76,4.69-2.32,6.4-4.69,1.71-2.37,2.56-5.45,2.56-9.25v-67.71c0-6.64.85-12.42,2.56-17.35,1.71-4.93,4.17-9.05,7.4-12.38,3.22-3.32,7.11-5.83,11.66-7.54,4.55-1.71,9.57-2.56,15.08-2.56s9.82,1.14,13.51,3.41c3.7,2.28,6.54,5.79,8.53,10.53,1.99,4.74,2.99,11,2.99,18.78v74.82c0,3.8.85,6.88,2.56,9.25,1.71,2.37,3.84,3.93,6.4,4.69,2.56.76,5.12.76,7.68,0,2.56-.76,4.69-2.32,6.4-4.69,1.71-2.37,2.56-5.45,2.56-9.25v-67.71c0-6.64.85-12.42,2.56-17.35,1.71-4.93,4.17-9.05,7.4-12.38,3.22-3.32,7.11-5.83,11.66-7.54,4.55-1.71,9.57-2.56,15.08-2.56s9.81,1.14,13.51,3.41c3.7,2.28,6.54,5.79,8.53,10.53,1.99,4.74,2.99,11,2.99,18.78v74.82c0,4.74,1.28,8.35,3.84,10.81,2.56,2.46,5.55,3.7,8.96,3.7s6.4-1.24,8.96-3.7c2.56-2.46,3.84-6.07,3.84-10.81v-74.82c0-10.05-1.33-18.73-3.98-26.03Z"/><path class="cls-1" d="m181.96,26.26h-59.54C120.3,11.43,107.52,0,92.12,0,75.24,0,61.51,13.73,61.51,30.62s13.73,30.62,30.62,30.62c15.4,0,28.18-11.43,30.3-26.26h54.99l23.98,34.4h137.79v-8.72h-133.24l-23.98-34.4Zm-89.84,26.26c-12.08,0-21.9-9.82-21.9-21.9s9.82-21.9,21.9-21.9,21.9,9.82,21.9,21.9-9.82,21.9-21.9,21.9Z"/><path class="cls-1" d="m241.35,253.86h-102.99c-2.27-14.66-14.97-25.91-30.25-25.91-16.88,0-30.61,13.73-30.61,30.61s13.73,30.62,30.61,30.62c15.52,0,28.37-11.61,30.34-26.6h107.45l23.98-34.4h69.31v-8.72h-73.86l-23.98,34.4Zm-133.24,26.6c-12.07,0-21.9-9.82-21.9-21.9s9.82-21.9,21.9-21.9,21.9,9.82,21.9,21.9-9.82,21.9-21.9,21.9Z"/><path class="cls-1" d="m167.52,85.83c-16.88,0-30.62,13.73-30.62,30.62s13.73,30.61,30.62,30.61c15.88,0,28.97-12.15,30.47-27.65h141.19v-8.72h-141.59c-2.7-14.14-15.15-24.87-30.07-24.87Zm0,52.51c-12.08,0-21.9-9.82-21.9-21.9s9.82-21.9,21.9-21.9,21.9,9.82,21.9,21.9-9.82,21.9-21.9,21.9Z"/><path class="cls-1" d="m96.57,166.67l21.54,36.83h83.36l19.47-29.2,117.74-.51-.04-8.72-122.38.53-19.45,29.18h-73.7l-21.54-36.83h-40.89c-2.7-14.14-15.15-24.87-30.07-24.87C13.73,133.09,0,146.82,0,163.7s13.73,30.62,30.62,30.62c15.88,0,28.97-12.15,30.47-27.65h35.49Zm-65.96,18.93c-12.08,0-21.9-9.82-21.9-21.9s9.82-21.9,21.9-21.9,21.9,9.82,21.9,21.9-9.82,21.9-21.9,21.9Z"/></svg>